<svg id="Слой_2" data-name="Слой 2" xmlns="http://www.w3.org/2000/svg" viewBox="0 0 332 332"><title>favicon</title><g id="Слой_3" data-name="Слой 3"><rect width="332" height="332" rx="60.45" style="fill:#f7ede8"/></g><path d="M164,298.13A136.39,136.39,0,1,1,293.72,119.59l-13,4.22A122.75,122.75,0,1,0,164,284.49Z"/><path d="M286.13,159.82a46,46,0,0,0-20.47-17,74.31,74.31,0,0,0-31.14-6H175.94V272h31.33V234.66h27.25a76.58,76.58,0,0,0,31.14-5.8,46,46,0,0,0,20.47-17,47.62,47.62,0,0,0,7.16-26.11A46.83,46.83,0,0,0,286.13,159.82ZM254.35,203.3c-4.93,4-12.09,6-21.48,6l-25.6.07v-47h25.6q14,0,21.48,6.12a21.26,21.26,0,0,1,7.32,17.4A21.49,21.49,0,0,1,254.35,203.3Z" style="fill:#cd4631"/></svg>